---
layout: post
title: 1.9.8
date:   2018-02-25 21:30:42
categories: releases
windows: true
binary: true
---

* Added support for cmore.dk/no/fi
* Added support for eurosportplayer
    * Sometimes you need to remove a bad audio track like this. output from `ffmpeg -i knasig.mp4`. we need to remove the mp3 track.
    * `Stream #0:1[0x4a7]: Audio: mp3, 0 channels`
    * `Stream #0:2[0x1e2]: Audio: aac (LC), 48000 Hz, stereo, fltp, 133 kb/s`
    * ffmpeg -i knasig.mp4 -map 0:0 -map 0:2 -c copy bra.fil.mp4
* Added support for ATG
* Added support for mtv.se
* Fixed aftonbladet embedded support
* Fixed dplay.se/dk/no support
* Fixed viafree -A
* Fixed svtplay --all-last order
